<svg xmlns="http://www.w3.org/2000/svg" viewBox="0 0 1600 900" role="img" aria-labelledby="title desc">
  <title id="title">Computador en consultorio médico</title>
  <desc id="desc">Ilustración minimalista de un computador dentro de un consultorio médico vacío.</desc>
  <defs>
    <linearGradient id="wall" x1="0" x2="1" y1="0" y2="1">
      <stop offset="0" stop-color="#f8fbff"/>
      <stop offset="1" stop-color="#edf7f2"/>
    </linearGradient>
    <linearGradient id="screen" x1="0" x2="1" y1="0" y2="1">
      <stop offset="0" stop-color="#13233a"/>
      <stop offset="1" stop-color="#1d4f86"/>
    </linearGradient>
    <filter id="softShadow" x="-20%" y="-20%" width="140%" height="150%">
      <feDropShadow dx="0" dy="26" stdDeviation="26" flood-color="#0f172a" flood-opacity="0.16"/>
    </filter>
  </defs>
  <rect width="1600" height="900" fill="url(#wall)"/>
  <path d="M0 690h1600v210H0z" fill="#e7eef6"/>
  <path d="M0 690h1600" stroke="#cbd5e1" stroke-width="3"/>
  <path d="M226 247h285v405H226z" fill="#f9fbfe" stroke="#d9e4ee" stroke-width="6"/>
  <path d="M263 291h211M263 332h161M263 373h183" stroke="#dce8f3" stroke-width="12" stroke-linecap="round"/>
  <rect x="214" y="204" width="316" height="18" rx="9" fill="#d7e3ef"/>
  <g filter="url(#softShadow)">
    <rect x="592" y="318" width="500" height="296" rx="28" fill="#f8fafc" stroke="#a9bed2" stroke-width="10"/>
    <rect x="626" y="352" width="432" height="222" rx="16" fill="url(#screen)"/>
    <path d="M760 662h164" stroke="#7189a6" stroke-width="22" stroke-linecap="round"/>
    <path d="M826 610v58" stroke="#7189a6" stroke-width="28" stroke-linecap="round"/>
    <rect x="704" y="682" width="276" height="34" rx="17" fill="#dbe6f2"/>
  </g>
  <path d="M633 397h322M633 443h217M633 489h279" stroke="#dceffd" stroke-width="16" stroke-linecap="round" opacity=".92"/>
  <circle cx="1004" cy="528" r="18" fill="#b7f0d8"/>
  <path d="M1090 668h288" stroke="#cbd5e1" stroke-width="20" stroke-linecap="round"/>
  <path d="M1154 668v126M1322 668v126" stroke="#cbd5e1" stroke-width="16" stroke-linecap="round"/>
  <circle cx="1205" cy="418" r="58" fill="#f8fafc" stroke="#d9e4ee" stroke-width="7"/>
  <path d="M1205 384v39l31 20" stroke="#8ba4bd" stroke-width="10" stroke-linecap="round" stroke-linejoin="round"/>
</svg>
